<svg width="16" height="16" viewBox="0 0 16 16" fill="none" xmlns="http://www.w3.org/2000/svg">
<g id="ewm-icon">
<path id="Vector" d="M11.196 4H4.8101C4.35829 4.02521 3.99988 4.39962 3.99988 4.85723V11.2146C4.03395 11.6332 4.36713 11.966 4.78612 12H11.2124C11.6415 11.9647 11.9822 11.6142 11.9999 11.1806V4.76647C11.9557 4.35172 11.6162 4.02521 11.196 4Z" fill="white"/>
<path id="Vector_2" d="M3.79401 0H1.03771C0.482655 0.0620556 0.0430941 0.515406 0.00172374 1.07735V3.79229C0.00172374 4.18186 0.317173 4.49903 0.708468 4.49903C1.09804 4.49903 1.41521 4.18358 1.41521 3.79229V1.41176H3.79573C4.18531 1.41176 4.50248 1.09632 4.50248 0.70502C4.49903 0.315449 4.18358 0 3.79401 0ZM3.79401 14.5848H1.41349V12.206C1.41349 11.8164 1.09804 11.4992 0.706744 11.4992C0.317173 11.4992 0 11.8147 0 12.206V14.8278C0 15.4449 0.47576 15.95 1.07908 15.9983H3.79056C4.18013 15.9983 4.49731 15.6828 4.49731 15.2915C4.49903 14.902 4.18358 14.5848 3.79401 14.5848ZM15.9966 14.9106V12.206C15.9966 11.8164 15.6811 11.4992 15.2898 11.4992C14.9002 11.4992 14.5831 11.8147 14.5831 12.206V14.5865H12.206C11.8164 14.5865 11.4992 14.902 11.4992 15.2933C11.4992 15.6828 11.8147 16 12.206 16H14.9226C15.4984 15.9517 15.9569 15.488 15.9966 14.9106ZM14.864 0H12.206C11.8164 0 11.4992 0.315449 11.4992 0.706744C11.4992 1.09632 11.8147 1.41349 12.206 1.41349H14.5865V3.79401C14.5865 4.18358 14.902 4.50075 15.2933 4.50075C15.6828 4.50075 16 4.18531 16 3.79401V1.05839C15.9414 0.47576 15.457 0.0172377 14.864 0Z" fill="white"/>
</g>
</svg>
