<svg width="56" height="56" viewBox="0 0 56 56" fill="none" xmlns="http://www.w3.org/2000/svg">
<g id="close-icon">
<circle id="Ellipse 83" cx="28" cy="28" r="27.5" fill="white" stroke="#CCCCCC"/>
<path id="Union" fill-rule="evenodd" clip-rule="evenodd" d="M37.0103 21.0062C37.4121 20.6044 37.4121 19.9531 37.0103 19.5513C36.6085 19.1496 35.9572 19.1496 35.5554 19.5513L28.2808 26.826L21.0062 19.5514C20.6044 19.1497 19.9531 19.1497 19.5513 19.5514C19.1496 19.9532 19.1496 20.6045 19.5513 21.0063L26.8259 28.2809L19.5518 35.5549C19.1501 35.9567 19.1501 36.608 19.5518 37.0098C19.9536 37.4115 20.6049 37.4115 21.0067 37.0098L28.2808 29.7357L35.5549 37.0099C35.9567 37.4116 36.608 37.4116 37.0098 37.0099C37.4115 36.6081 37.4115 35.9568 37.0098 35.555L29.7356 28.2809L37.0103 21.0062Z" fill="#333333"/>
</g>
</svg>
