<svg width="56" height="56" viewBox="0 0 56 56" fill="none" xmlns="http://www.w3.org/2000/svg">
<g id="sq-icon">
<circle id="Ellipse 83" cx="28" cy="28" r="27.5" fill="white" stroke="#CCCCCC"/>
<path id="Vector" d="M29.312 19.684C29.2314 19.5531 29.1793 19.4073 29.159 19.2558C29.1387 19.1043 29.1505 18.9503 29.1937 18.8035C29.237 18.6567 29.3107 18.5202 29.4104 18.4025C29.51 18.2848 29.6334 18.1885 29.7728 18.1195C29.9122 18.0506 30.0647 18.0105 30.2206 18.0018C30.3766 17.9931 30.5327 18.0159 30.6793 18.0689C30.8258 18.1219 30.9596 18.2038 31.0723 18.3097C31.185 18.4155 31.2741 18.5429 31.3342 18.684L35.8785 27.5729C35.9584 27.728 36 27.8992 36 28.0729C36 28.2465 35.9584 28.4178 35.8785 28.5729L31.3342 37.4618C31.1863 37.7021 30.9509 37.8789 30.6752 37.9566C30.3996 38.0342 30.1041 38.007 29.8481 37.8805C29.5921 37.7539 29.3946 37.5373 29.2951 37.2741C29.1957 37.0109 29.2017 36.7207 29.312 36.4618L33.595 28.0729L29.312 19.684ZM19.0873 19.684C18.977 19.425 18.971 19.1348 19.0705 18.8716C19.1699 18.6085 19.3675 18.3919 19.6235 18.2653C19.8794 18.1387 20.1749 18.1115 20.4506 18.1892C20.7262 18.2668 20.9616 18.4436 21.1095 18.684L25.6538 27.5729C25.7337 27.728 25.7753 27.8992 25.7753 28.0729C25.7753 28.2465 25.7337 28.4178 25.6538 28.5729L21.1095 37.4618C20.9616 37.7021 20.7262 37.8789 20.4506 37.9566C20.1749 38.0342 19.8794 38.007 19.6235 37.8805C19.3675 37.7539 19.1699 37.5373 19.0705 37.2741C18.971 37.0109 18.977 36.7207 19.0873 36.4618L23.3703 28.0729L19.0873 19.684Z" fill="#333333"/>
</g>
</svg>
