<svg width="30" height="33" viewBox="0 0 30 33" fill="none" xmlns="http://www.w3.org/2000/svg">
<g id="convenient-icon">
<path id="bj-icon" fill-rule="evenodd" clip-rule="evenodd" d="M27.213 7.78086L15.4673 13.9922C15.1748 14.1469 14.8248 14.1469 14.5323 13.9922L2.78667 7.78086C2.06812 7.40088 2.07904 6.36787 2.80547 6.00317L14.5511 0.106305C14.8335 -0.0354351 15.1662 -0.0354351 15.4485 0.106305L27.1942 6.00317C27.9206 6.36786 27.9315 7.40088 27.213 7.78086ZM13.3994 17.2901L1.47094 10.9222C0.804818 10.5666 0 11.0492 0 11.8043V24.7881C0 25.1598 0.206221 25.5009 0.535418 25.6736L12.4639 31.9317C13.1297 32.281 13.9285 31.7981 13.9285 31.0462V18.1722C13.9285 17.8031 13.7251 17.4639 13.3994 17.2901ZM28.4994 11.0048L17.6423 17.2837C17.3333 17.4624 17.143 17.7924 17.143 18.1494V30.9815C17.143 31.7483 17.9704 32.2298 18.6371 31.8509L29.4941 25.6802C29.8068 25.5025 30 25.1705 30 24.8108V11.8704C30 11.1003 29.166 10.6192 28.4994 11.0048Z" fill="#00A2E9"/>
</g>
</svg>
