<svg width="16" height="16" viewBox="0 0 16 16" fill="none" xmlns="http://www.w3.org/2000/svg">
<g id="zzxz-icon">
<path id="Ellipse 43 (Stroke)" fill-rule="evenodd" clip-rule="evenodd" d="M8 1.6C11.5346 1.6 14.4 4.46538 14.4 8C14.4 8.44183 14.7582 8.8 15.2 8.8C15.6418 8.8 16 8.44183 16 8C16 3.58172 12.4183 0 8 0C7.55817 0 7.2 0.358172 7.2 0.8C7.2 1.24183 7.55817 1.6 8 1.6Z" fill="url(#paint0_linear_1687_78)"/>
<path id="Ellipse 45 (Stroke)" fill-rule="evenodd" clip-rule="evenodd" d="M14.4 8C14.4 11.5346 11.5346 14.4 8 14.4C7.55817 14.4 7.2 14.7582 7.2 15.2C7.2 15.6418 7.55817 16 8 16C12.4183 16 16 12.4183 16 8C16 7.55817 15.6418 7.2 15.2 7.2C14.7582 7.2 14.4 7.55817 14.4 8Z" fill="url(#paint1_linear_1687_78)"/>
<path id="Ellipse 46 (Stroke)" fill-rule="evenodd" clip-rule="evenodd" d="M8 14.4C4.46538 14.4 1.6 11.5346 1.6 8C1.6 7.55817 1.24183 7.2 0.8 7.2C0.358172 7.2 0 7.55817 0 8C0 12.4183 3.58172 16 8 16C8.44183 16 8.8 15.6418 8.8 15.2C8.8 14.7582 8.44183 14.4 8 14.4Z" fill="url(#paint2_linear_1687_78)"/>
<path id="Ellipse 47 (Stroke)" fill-rule="evenodd" clip-rule="evenodd" d="M1.6 8C1.6 4.46538 4.46538 1.6 8 1.6C8.44183 1.6 8.8 1.24183 8.8 0.8C8.8 0.358173 8.44183 3.69004e-07 8 3.49691e-07C3.58172 1.56562e-07 -1.56562e-07 3.58172 -3.49691e-07 8C-3.69004e-07 8.44183 0.358172 8.8 0.8 8.8C1.24183 8.8 1.6 8.44183 1.6 8Z" fill="url(#paint3_linear_1687_78)"/>
</g>
<defs>
<linearGradient id="paint0_linear_1687_78" x1="15.2" y1="8.18" x2="10.79" y2="1.07" gradientUnits="userSpaceOnUse">
<stop stop-color="white"/>
<stop offset="1" stop-color="white" stop-opacity="0"/>
</linearGradient>
<linearGradient id="paint1_linear_1687_78" x1="7.82" y1="15.2" x2="14.93" y2="10.79" gradientUnits="userSpaceOnUse">
<stop stop-color="white"/>
<stop offset="1" stop-color="white" stop-opacity="0"/>
</linearGradient>
<linearGradient id="paint2_linear_1687_78" x1="0.8" y1="7.82" x2="5.21" y2="14.93" gradientUnits="userSpaceOnUse">
<stop stop-color="white"/>
<stop offset="1" stop-color="white" stop-opacity="0"/>
</linearGradient>
<linearGradient id="paint3_linear_1687_78" x1="8.18" y1="0.8" x2="1.07" y2="5.21" gradientUnits="userSpaceOnUse">
<stop stop-color="white"/>
<stop offset="1" stop-color="white" stop-opacity="0"/>
</linearGradient>
</defs>
</svg>
