<svg width="16" height="16" viewBox="0 0 16 16" fill="none" xmlns="http://www.w3.org/2000/svg">
<g id="xzcg-icon">
<circle id="Ellipse 76" cx="8" cy="8" r="8" fill="#10B981"/>
<g id="Union">
<path fill-rule="evenodd" clip-rule="evenodd" d="M11.9866 5.22932C11.6806 4.9233 11.1844 4.9233 10.8784 5.22932L6.99973 9.10797L5.33765 7.4459C5.03163 7.13988 4.53548 7.13988 4.22946 7.4459C3.92344 7.75192 3.92344 8.24808 4.22946 8.5541L6.44024 10.7649C6.44202 10.7667 6.44381 10.7685 6.4456 10.7703C6.46776 10.7924 6.4909 10.813 6.51491 10.8319C6.82247 11.0749 7.2701 11.0544 7.55404 10.7705C7.55931 10.7652 7.56449 10.7599 7.56957 10.7545L11.9866 6.33751C12.2926 6.0315 12.2926 5.53534 11.9866 5.22932Z" fill="white"/>
<path fill-rule="evenodd" clip-rule="evenodd" d="M11.9866 5.22932C11.6806 4.9233 11.1844 4.9233 10.8784 5.22932L6.99973 9.10797L5.33765 7.4459C5.03163 7.13988 4.53548 7.13988 4.22946 7.4459C3.92344 7.75192 3.92344 8.24808 4.22946 8.5541L6.44024 10.7649C6.44202 10.7667 6.44381 10.7685 6.4456 10.7703C6.46776 10.7924 6.4909 10.813 6.51491 10.8319C6.82247 11.0749 7.2701 11.0544 7.55404 10.7705C7.55931 10.7652 7.56449 10.7599 7.56957 10.7545L11.9866 6.33751C12.2926 6.0315 12.2926 5.53534 11.9866 5.22932Z" fill="white"/>
</g>
</g>
</svg>
