<svg width="16" height="17" viewBox="0 0 16 17" fill="none" xmlns="http://www.w3.org/2000/svg">
<g id="xzsb-icon">
<circle id="Ellipse 75" cx="8" cy="8.75" r="5" fill="white"/>
<path id="Vector" d="M8 0.75C3.592 0.75 0 4.342 0 8.75C0 13.158 3.592 16.75 8 16.75C12.408 16.75 16 13.158 16 8.75C16 4.342 12.408 0.75 8 0.75ZM7 6.05C7 5.722 6.78528 4.44995 7.98528 4.44995C9.18528 4.44995 8.99904 5.722 8.99904 6.05L8.58548 10.05C8.58548 10.378 8.31348 10.65 7.98548 10.65C7.65748 10.65 7.38548 10.378 7.38548 10.05L7 6.05ZM8.72148 12.754C8.68148 12.858 8.62548 12.938 8.55348 13.018C8.47348 13.09 8.38548 13.146 8.28948 13.186C8.19348 13.226 8.08948 13.25 7.98548 13.25C7.88148 13.25 7.77748 13.226 7.68148 13.186C7.58548 13.146 7.49748 13.09 7.41748 13.018C7.34548 12.938 7.28948 12.858 7.24948 12.754C7.20948 12.658 7.18548 12.554 7.18548 12.45C7.18548 12.346 7.20948 12.242 7.24948 12.146C7.28948 12.05 7.34548 11.962 7.41748 11.882C7.49748 11.81 7.58548 11.754 7.68148 11.714C7.87348 11.634 8.09748 11.634 8.28948 11.714C8.38548 11.754 8.47348 11.81 8.55348 11.882C8.62548 11.962 8.68148 12.05 8.72148 12.146C8.76148 12.242 8.78548 12.346 8.78548 12.45C8.78548 12.554 8.76148 12.658 8.72148 12.754Z" fill="#EF4444"/>
</g>
</svg>
