<svg width="18" height="18" viewBox="0 0 18 18" fill="none" xmlns="http://www.w3.org/2000/svg">
<g id="wj-icon">
<path id="Rectangle 289" d="M16 17.5H2C1.17157 17.5 0.5 16.8284 0.5 16V2C0.5 1.17157 1.17157 0.5 2 0.5H12.1716C12.5694 0.5 12.9509 0.658035 13.2322 0.93934L17.0607 4.76777C17.342 5.04907 17.5 5.4306 17.5 5.82843V16C17.5 16.8284 16.8284 17.5 16 17.5Z" stroke="white"/>
<path id="Rectangle 290" d="M12 1V4C12 5.10457 12.8954 6 14 6H17" stroke="white"/>
<rect id="Rectangle 291" x="3" y="5" width="6" height="1" rx="0.5" fill="white"/>
<rect id="Rectangle 292" x="3" y="9" width="11" height="1" rx="0.5" fill="white"/>
<rect id="Rectangle 293" x="3" y="13" width="11" height="1" rx="0.5" fill="white"/>
</g>
</svg>
