<svg width="18" height="18" viewBox="0 0 18 18" fill="none" xmlns="http://www.w3.org/2000/svg">
<g id="Group 168">
<path id="Rectangle 294" d="M17.5 7V16C17.5 16.8284 16.8284 17.5 16 17.5H2C1.17157 17.5 0.5 16.8284 0.5 16V2C0.5 1.17157 1.17157 0.5 2 0.5H5.64593C6.25929 0.5 6.81085 0.873426 7.03865 1.44291L8.03287 3.92848C8.41253 4.87762 9.3318 5.5 10.3541 5.5H16C16.8284 5.5 17.5 6.17157 17.5 7Z" stroke="white"/>
<rect id="Rectangle 295" x="4" y="13" width="6" height="1" rx="0.5" fill="white"/>
<path id="Rectangle 296" d="M7 2H14C15.1046 2 16 2.89543 16 4V6" stroke="white"/>
</g>
</svg>
