<svg width="80" height="80" viewBox="0 0 80 80" fill="none" xmlns="http://www.w3.org/2000/svg">
<path fill-rule="evenodd" clip-rule="evenodd" d="M40 8C57.6731 8 72 22.3269 72 40C72 42.2091 73.7909 44 76 44C78.2091 44 80 42.2091 80 40C80 17.9086 62.0914 0 40 0C37.7909 0 36 1.79086 36 4C36 6.20914 37.7909 8 40 8Z" fill="url(#paint0_linear_662_1265)"/>
<path fill-rule="evenodd" clip-rule="evenodd" d="M72 40C72 57.6731 57.6731 72 40 72C37.7909 72 36 73.7909 36 76C36 78.2091 37.7909 80 40 80C62.0914 80 80 62.0914 80 40C80 37.7909 78.2091 36 76 36C73.7909 36 72 37.7909 72 40Z" fill="url(#paint1_linear_662_1265)"/>
<path fill-rule="evenodd" clip-rule="evenodd" d="M40 72C22.3269 72 8 57.6731 8 40C8 37.7909 6.20914 36 4 36C1.79086 36 0 37.7909 0 40C0 62.0914 17.9086 80 40 80C42.2091 80 44 78.2091 44 76C44 73.7909 42.2091 72 40 72Z" fill="url(#paint2_linear_662_1265)"/>
<path fill-rule="evenodd" clip-rule="evenodd" d="M8 40C8 22.3269 22.3269 8 40 8C42.2091 8 44 6.20914 44 4C44 1.79086 42.2091 1.84502e-06 40 1.74846e-06C17.9086 7.8281e-07 -7.8281e-07 17.9086 -1.74846e-06 40C-1.84502e-06 42.2091 1.79086 44 4 44C6.20914 44 8 42.2091 8 40Z" fill="url(#paint3_linear_662_1265)"/>
<defs>
<linearGradient id="paint0_linear_662_1265" x1="76" y1="40.9" x2="53.95" y2="5.35" gradientUnits="userSpaceOnUse">
<stop stop-color="#196BFF"/>
<stop offset="1" stop-color="#196BFF" stop-opacity="0"/>
</linearGradient>
<linearGradient id="paint1_linear_662_1265" x1="39.1" y1="76" x2="74.65" y2="53.95" gradientUnits="userSpaceOnUse">
<stop stop-color="#196BFF"/>
<stop offset="1" stop-color="#196BFF" stop-opacity="0"/>
</linearGradient>
<linearGradient id="paint2_linear_662_1265" x1="4" y1="39.1" x2="26.05" y2="74.65" gradientUnits="userSpaceOnUse">
<stop stop-color="#196BFF"/>
<stop offset="1" stop-color="#196BFF" stop-opacity="0"/>
</linearGradient>
<linearGradient id="paint3_linear_662_1265" x1="40.9" y1="4" x2="5.35" y2="26.05" gradientUnits="userSpaceOnUse">
<stop stop-color="#196BFF"/>
<stop offset="1" stop-color="#196BFF" stop-opacity="0"/>
</linearGradient>
</defs>
</svg>
