<svg width="16" height="17" viewBox="0 0 16 17" fill="none" xmlns="http://www.w3.org/2000/svg">
<g id="xz-icon">
<path id="xz-icon_2" d="M1.14043 16.75L14.8596 16.75C15.487 16.75 16 16.2324 16 15.5993C16 14.9663 15.487 14.4487 14.8596 14.4487L1.14043 14.4487C0.513011 14.4487 -3.65876e-06 14.9663 -3.7141e-06 15.5993C-3.76945e-06 16.2324 0.513011 16.75 1.14043 16.75ZM13.3366 6.51412L10.8555 6.51412L10.8555 1.83934C10.8555 1.23876 10.3729 0.75 9.77589 0.75L6.21159 0.75C5.61635 0.749999 5.13194 1.23696 5.13194 1.83934L5.13194 6.51411L2.65087 6.51411C2.17361 6.51411 1.92336 7.08764 2.24868 7.44294L7.59155 13.2774C7.80784 13.5137 8.17964 13.5137 8.39772 13.2774L13.7388 7.44294C14.0623 7.08764 13.8139 6.51412 13.3366 6.51412Z" fill="white"/>
</g>
</svg>
