<svg width="28" height="32" viewBox="0 0 28 32" fill="none" xmlns="http://www.w3.org/2000/svg">
<g id="safety-icon">
<path id="aq-icon" d="M27.3408 4.5072C26.9319 4.144 26.3966 3.9624 25.8637 3.9624C25.8006 3.9624 25.769 3.9624 25.7066 3.9624C25.675 3.9624 25.3293 3.9928 24.7948 3.9928C23.8829 3.9928 22.1548 3.932 20.4898 3.5392C18.3519 3.056 15.869 0.7872 15.1459 0.3328C14.8009 0.1208 14.3603 0 13.9514 0C13.5432 0 13.1351 0.1208 12.7577 0.3328C12.6638 0.3936 10.087 2.964 7.57251 3.5392C5.90672 3.932 4.11542 3.9928 3.23598 3.9928C2.66991 3.9928 2.32495 3.9624 2.29337 3.9624C2.26178 3.9624 2.1986 3.9624 2.16785 3.9624C1.60178 3.9624 1.09889 4.144 0.690752 4.5072C0.251031 4.8704 0 5.4144 0 5.9592V10.9792C0 29.4904 13.0412 31.8784 13.5757 31.9696C13.7012 32 13.8275 32 13.9522 32C14.0777 32 14.2049 32 14.3304 31.9696C14.8957 31.8784 28 29.4896 28 10.9792V5.9592C28 5.4144 27.7473 4.8704 27.3408 4.5072ZM22.5006 11.676L13.4809 20.0832C13.4177 20.1744 13.3554 20.2656 13.2606 20.3264C13.0088 20.568 12.6638 20.6888 12.318 20.6888C11.9714 20.6888 11.6264 20.568 11.3438 20.3264C11.2806 20.2656 11.1875 20.1752 11.1551 20.0832L6.31569 15.5768C5.8128 15.0928 5.8128 14.3376 6.31569 13.8536C6.81775 13.3688 7.66644 13.3688 8.16933 13.8536L12.318 17.6944L20.6461 9.952C21.1814 9.468 21.9969 9.468 22.4997 9.952C23.0342 10.4056 23.0342 11.192 22.5006 11.676Z" fill="#00A2E9"/>
</g>
</svg>
