<svg width="16" height="17" viewBox="0 0 16 17" fill="none" xmlns="http://www.w3.org/2000/svg">
<g id="Group 59">
<path id="Vector" d="M9.98474 6.91517C9.86219 6.79266 9.73157 6.68223 9.59696 6.57983L9.59672 6.58005C9.45818 6.44681 9.27007 6.36475 9.06268 6.36475C8.63701 6.36475 8.29198 6.7098 8.29198 7.13545C8.29198 7.32378 8.35963 7.49629 8.47187 7.63016H8.47185C8.47187 7.63018 8.47191 7.63022 8.47195 7.63024C8.52587 7.69455 8.59002 7.74999 8.66203 7.79389C8.7347 7.85381 8.80603 7.91282 8.87274 7.97952L8.93627 8.04308C9.73504 8.84085 9.49658 10.2153 8.69781 11.0141L5.28931 14.4216C4.49057 15.2194 3.19199 15.2194 2.39321 14.4216L2.32916 14.3575C1.53036 13.5588 1.53036 12.2592 2.32916 11.4624L3.83501 9.95708C4.02822 9.80372 4.15225 9.56703 4.15225 9.30124C4.15225 8.83892 3.77748 8.46416 3.31517 8.46416C3.14071 8.46416 2.97877 8.51757 2.84468 8.60886C2.84425 8.60797 2.84381 8.60712 2.84336 8.60621L2.82731 8.62122C2.76803 8.66384 2.71444 8.71382 2.66815 8.77015L1.10325 10.2345C-0.367751 11.7065 -0.367751 14.114 1.10325 15.584L1.16679 15.6475C2.63779 17.1175 5.04426 17.1175 6.51526 15.6475L9.92274 12.239C11.3917 10.7681 11.5163 8.44768 10.0473 6.97769L9.98474 6.91517Z" fill="white"/>
<path id="Vector_2" d="M14.8964 1.91679L14.8329 1.85325C13.3619 0.382249 10.9555 0.382249 9.48445 1.85325L6.07697 5.26173C4.60596 6.73274 4.52495 8.85695 5.99596 10.3289L6.05848 10.3905C6.12528 10.4573 6.19462 10.5202 6.26541 10.5806C6.31665 10.6378 6.37683 10.6868 6.44374 10.7256C6.44425 10.726 6.44477 10.7264 6.44528 10.7268L6.4455 10.7266C6.55214 10.7879 6.67571 10.8232 6.80757 10.8232C7.20941 10.8232 7.53515 10.4974 7.53515 10.0956C7.53515 9.9822 7.50917 9.87485 7.46286 9.77915C7.36668 9.56317 7.18662 9.4317 7.06208 9.30714L6.99954 9.24561C6.20079 8.44687 6.50411 7.28642 7.30285 6.48768L10.7123 3.08018C11.5091 2.28139 12.8081 2.28139 13.6069 3.08018L13.6705 3.1427C14.4693 3.9415 14.4693 5.24154 13.6705 6.03931L12.1696 7.54124C11.9654 7.69252 11.833 7.93519 11.833 8.20879C11.833 8.66735 12.2047 9.03911 12.6633 9.03911C12.8229 9.03911 12.9719 8.99398 13.0985 8.91594C13.0994 8.91756 13.1003 8.91906 13.1013 8.9207L13.1246 8.89921C13.1963 8.8512 13.26 8.79225 13.3135 8.72486L14.8954 7.26526C16.3674 5.79428 16.3674 3.38777 14.8964 1.91679Z" fill="white"/>
</g>
</svg>
