<svg width="56" height="56" viewBox="0 0 56 56" fill="none" xmlns="http://www.w3.org/2000/svg">
<g id="tx-img">
<circle id="Ellipse 71" cx="28" cy="28" r="27" fill="#D5D8DF" stroke="#F3F2F2" stroke-width="2"/>
<circle id="Ellipse 72" cx="28" cy="28" r="15.75" fill="#243867"/>
<circle id="Ellipse 73" cx="29.75" cy="26.25" r="10.5" fill="#F2F6FF"/>
<rect id="Rectangle 210" x="24.5" y="22.75" width="3.5" height="3.5" rx="1.75" fill="#243867"/>
<path id="Union" fill-rule="evenodd" clip-rule="evenodd" d="M35.7582 21.4375C35.3397 21.1959 34.8045 21.3393 34.5629 21.7578L33.7024 23.2482C33.6973 23.2564 33.6923 23.2648 33.6874 23.2732C33.4458 23.6917 33.5892 24.2269 34.0077 24.4685L35.5232 25.3435C35.9417 25.5851 36.4769 25.4417 36.7185 25.0232C36.9601 24.6047 36.8167 24.0696 36.3982 23.8279L35.6409 23.3907L36.0785 22.6328C36.3201 22.2143 36.1767 21.6791 35.7582 21.4375Z" fill="#243867"/>
<path id="Union_2" fill-rule="evenodd" clip-rule="evenodd" d="M38.5 0C34.634 0 31.5 3.13401 31.5 7C31.5 10.866 34.634 14 38.5 14H39.6672V17.9193C39.6672 18.381 40.2395 18.596 40.5435 18.2485L44.261 14H44.6923H49C52.866 14 56 10.866 56 7C56 3.13401 52.866 0 49 0H38.5Z" fill="#F0F4FB"/>
<g id="Hi">
<path d="M43.8798 7.16773C43.4705 7.13493 43.0696 7.11853 42.677 7.11853C42.2878 7.11853 41.8836 7.14089 41.4644 7.18562C40.9354 8.50958 40.3681 9.45634 39.7626 10.0259C39.5397 10.2376 39.3085 10.3807 39.0689 10.4553C39.009 10.4761 38.9475 10.4866 38.8843 10.4866C38.8244 10.4866 38.7712 10.4761 38.7246 10.4553C38.6747 10.4374 38.6347 10.4135 38.6048 10.3837C38.5349 10.3241 38.5 10.2614 38.5 10.1958C38.5 10.1273 38.525 10.0766 38.5749 10.0438C39.869 9.21215 41.1327 5.62932 41.1799 4.16645C41.0435 4.17242 40.9171 4.20522 40.8006 4.26486L40.4213 4.45719C40.3182 4.50788 40.1818 4.46763 40.0121 4.33642C39.8458 4.21118 39.7726 4.09191 39.7925 3.97859C39.8158 3.80863 40.082 3.66848 40.591 3.55815C40.7707 3.51938 40.9121 3.5 41.0152 3.5C41.1183 3.5 41.2198 3.50298 41.3196 3.50895C41.4228 3.51193 41.5159 3.52236 41.5991 3.54026C41.9318 3.61182 42.1364 3.74004 42.2129 3.92492C42.2462 4.00841 42.2628 4.1098 42.2628 4.22907C42.2628 4.34537 42.2495 4.48403 42.2229 4.64505C42.1963 4.80309 42.158 4.98349 42.1081 5.18626C42.0017 5.62758 41.8603 6.09872 41.6839 6.59968C42.4092 6.52215 43.1595 6.48339 43.9346 6.48339H44.1492L44.4237 5.74984C44.7298 4.92386 44.9178 4.29915 44.9876 3.87572C45.0309 3.62524 45.1706 3.5 45.4068 3.5C45.5599 3.5 45.6863 3.53429 45.7861 3.60288C45.9724 3.72513 46.0623 3.85783 46.0556 4.00096C46.049 4.14111 46.0207 4.29915 45.9708 4.47508C45.9209 4.65101 45.856 4.84782 45.7761 5.0655C45.6963 5.28317 45.6048 5.51725 45.5017 5.76773C45.0342 6.8917 44.5373 7.78429 44.1542 9.03738C44.0877 9.25208 44.0544 9.39819 44.0544 9.47572C44.0544 9.63674 44.126 9.71725 44.269 9.71725C44.4021 9.71725 44.5102 9.69787 44.5934 9.65911L44.7731 9.57859C44.8096 9.56368 44.8446 9.55623 44.8779 9.55623C44.9477 9.55623 44.9827 9.58754 44.9827 9.65016C44.9827 9.91555 44.8113 10.1377 44.4686 10.3166C44.2424 10.4359 44.0078 10.4955 43.765 10.4955C43.4256 10.4955 43.1894 10.3599 43.0563 10.0885C43.0097 9.99606 42.9865 9.90809 42.9865 9.8246C42.9865 9.63078 43.0197 9.43546 43.0863 9.23866C43.1528 9.03887 43.226 8.8361 43.3058 8.63035L43.8798 7.16773Z" fill="#243867"/>
<path d="M48.7555 4.77923C48.6823 4.84782 48.5991 4.90447 48.5059 4.9492C48.4128 4.99095 48.3146 5.01778 48.2115 5.02971C48.1084 5.03866 48.0102 5.02375 47.9171 4.98498C47.8272 4.94622 47.749 4.89105 47.6825 4.81949C47.5394 4.67039 47.4679 4.51981 47.4679 4.36773C47.4679 4.21565 47.4945 4.10234 47.5478 4.0278C47.6043 3.95027 47.6742 3.88765 47.7574 3.83994C47.9171 3.7475 48.0668 3.70128 48.2065 3.70128C48.3496 3.70128 48.4594 3.71022 48.5359 3.72812C48.6157 3.74601 48.6889 3.77583 48.7555 3.81757C48.9185 3.91597 49 4.03674 49 4.17987C49 4.32002 48.9767 4.43781 48.9301 4.53323C48.8869 4.62567 48.8287 4.70767 48.7555 4.77923ZM47.7324 9.61885C47.8189 9.61885 47.8622 9.66954 47.8622 9.77093C47.8622 9.90511 47.794 10.0438 47.6576 10.1869C47.4579 10.3956 47.1901 10.5 46.8541 10.5C46.4682 10.5 46.2037 10.3599 46.0606 10.0796C46.0074 9.98115 45.9808 9.86187 45.9808 9.72173C45.9808 9.58158 46.0074 9.42652 46.0606 9.25655C46.1172 9.0836 46.1854 8.90319 46.2652 8.71534C46.3484 8.52449 46.4382 8.33216 46.5347 8.13834L46.7992 7.57476C46.9922 7.15431 47.0886 6.877 47.0886 6.74281C47.0886 6.60863 47.072 6.52066 47.0387 6.47891C47.0088 6.43419 46.9755 6.39989 46.9389 6.37604L46.8391 6.31342C46.8058 6.29255 46.7892 6.25676 46.7892 6.20607C46.7892 6.1524 46.8108 6.1017 46.8541 6.05399C46.9007 6.00628 46.9606 5.96454 47.0337 5.92875C47.1835 5.86017 47.3581 5.82588 47.5577 5.82588C48.0468 5.82588 48.2913 5.94068 48.2913 6.17029C48.2913 6.43866 48.2132 6.74579 48.0568 7.09169C47.9004 7.43461 47.7673 7.71193 47.6576 7.92364L47.3581 8.54089C47.1385 8.99414 47.0288 9.32066 47.0288 9.52045C47.0288 9.65165 47.1019 9.71725 47.2483 9.71725C47.3914 9.71725 47.4995 9.70085 47.5727 9.66805C47.6459 9.63525 47.6991 9.61885 47.7324 9.61885Z" fill="#243867"/>
</g>
</g>
</svg>
